<svg id="Layer_1" data-name="Layer 1" xmlns="http://www.w3.org/2000/svg" viewBox="0 0 367.03 361.42"><defs><style>.cls-1{fill:#2e3192;}.cls-2{fill:#f2f2f2;}</style></defs><g id="Home_Page" data-name="Home Page"><g id="Logo"><path class="cls-1" d="M520.46,1284.22l21.34,22,80.54-80.55,27.54,26.85c1.4,1.52,2.61,2.67,3.44,3.44,2.13,2,3.28,2.73,5.51,4.82s1.93,2.16,2.75,2.76c4,2.93,10.7,1.91,15.15-.69a16.8,16.8,0,0,0,4.13-3.44l10.32-10.33,53.7-53.7v38.75l30.63.2V1142.9H684l.33,30.48h39.24l-55.07,55.08-33.05-33.74a26.25,26.25,0,0,0-2.06-2.06,21.63,21.63,0,0,0-4.82-3.44,14,14,0,0,0-12.39.69,13.74,13.74,0,0,0-3.45,2.75l-13.08,13.08Z" transform="translate(-408.49 -944.83)"/><path class="cls-1" d="M547.31,1218.13l-26.85,26.1c-2-.41-4.88-1-8.26-2-42.57-12-78.46-48.77-94.32-91.56a152.52,152.52,0,0,1,30.29-155.58c45.64-50,108.14-50.34,115.66-50.26a154.17,154.17,0,0,1,137.68,88.81,149.8,149.8,0,0,1,12.39,78.48h-31c.21-1.51.48-3.64.69-6.2a121.82,121.82,0,0,0-2.75-35.8,116.8,116.8,0,0,0-17.21-41.3c-13.17-19.53-29-29.61-37.87-35.11a121.49,121.49,0,0,0-46.12-17.9,116.87,116.87,0,0,0-23.41-1.38c-32.79,1.42-56.87,17.05-64,22-9.57,6.68-38.23,28.7-48.87,69.53-1.66,6.36-12.65,51.48,14.45,95,21.22,34.07,53.13,46.86,62,50.26a123.71,123.71,0,0,0,22,6.19Z" transform="translate(-408.49 -944.83)"/><path class="cls-1" d="M500.49,1144.89c.46-3.06,1.06-5.84,1.75-9,.24-1.1.44-2,.58-2.62l9.33-27.4a14.19,14.19,0,0,1,4.08-5.24,13.33,13.33,0,0,1,1.75-1.17l1.16-.58,8.75-4.08V1047a20,20,0,0,1,1.75-7c.18-.41.38-.8.58-1.17l-2.33-1.16-15.74-5.83a4.58,4.58,0,0,1,0-4.08,3.69,3.69,0,0,1,1.17-1.17l1.16-.58,44.3-15.74a4.64,4.64,0,0,1,2.33-.58,5.72,5.72,0,0,1,1.35.23,6.24,6.24,0,0,1,1,.35l37.31,13.41,9.32,3.49a3.09,3.09,0,0,1-.58,5.25,4.15,4.15,0,0,1-1.75.58v4.67l1.75.58,1.17,10.49H599.58l1.17-10.49,1.75-.58v-2.34l-9.33,3.5a49.11,49.11,0,0,1,1.17,8.74c.06,1.44,0,2.8,0,4.08l.58,43.14a46.83,46.83,0,0,1,9.33,4.66,19.72,19.72,0,0,1,5.24,4.66,19.52,19.52,0,0,1,1.17,1.75l9.32,27.4c.17.62,3.87,15,2.34,19.23-.26.72-1,2.59-2.34,2.92a7,7,0,0,1-1.6,0c-1,0-1.91,0-2.48,0H502.24a3.29,3.29,0,0,1-1.16-.58C500.39,1154.24,499.31,1152.85,500.49,1144.89Z" transform="translate(-408.49 -944.83)"/><path class="cls-2" d="M535.47,1058.62a31,31,0,0,0,0,3.5,33.83,33.83,0,0,0,2.35,10.43,35.61,35.61,0,0,0,8.72,12.88,33.66,33.66,0,0,0,7.58,5.25l-9.91,9.91,2.91,1.16c.44.28,1,.67,1.75,1.17a33.38,33.38,0,0,1,7.58,7,26.1,26.1,0,0,1,4.66,10.49c.12-.39.32-1,.59-1.74a31.31,31.31,0,0,1,8.74-13.41,27.51,27.51,0,0,1,7.58-4.66l-.59-.59-9.32-9.32a16.38,16.38,0,0,0,1.75-.59c4-1.62,6.59-4.77,9.32-9.32a80.42,80.42,0,0,0,7.58-16.91,14.65,14.65,0,0,1-2.33-.58,17.05,17.05,0,0,1-6.41-4.08c-2.81-2.6-6.37-5.9-10.5-9.91a7.22,7.22,0,0,1-.58,1.17c-1.72,2.86-4.78,4-7,4.66a59.53,59.53,0,0,1-17.49,3.5C539.52,1058.76,537.09,1058.7,535.47,1058.62Z" transform="translate(-408.49 -944.83)"/></g></g></svg>