<svg id="Layer_1" data-name="Layer 1" xmlns="http://www.w3.org/2000/svg" viewBox="0 0 842.29 187.18"><defs><style>.cls-1,.cls-3{fill:#2e3192;}.cls-2{fill:#f2f2f2;}.cls-3{font-size:129.6px;font-family:Helvetica;}</style></defs><g id="Logo"><path class="cls-1" d="M179.91,1211.13l10,10.26,37.54-37.54,12.84,12.51c.65.71,1.21,1.25,1.6,1.61,1,.91,1.53,1.27,2.57,2.24s.9,1,1.28,1.29c1.89,1.37,5,.89,7.06-.32a7.65,7.65,0,0,0,1.93-1.61l4.81-4.81,25-25v18.06l14.28.09v-42.63H256.13l.15,14.21h18.3l-25.68,25.67-15.4-15.72a12.05,12.05,0,0,0-1-1,10.21,10.21,0,0,0-2.25-1.6,6.54,6.54,0,0,0-5.78.32,6.42,6.42,0,0,0-1.6,1.28l-6.1,6.1Z" transform="translate(-127.71 -1052.92)"/><path class="cls-1" d="M192.42,1180.32l-12.51,12.16c-.94-.19-2.28-.49-3.85-.93-19.84-5.6-36.57-22.73-44-42.68a71.12,71.12,0,0,1,14.12-72.52c21.28-23.29,50.41-23.47,53.92-23.43a72.41,72.41,0,0,1,39.15,12.19,71.67,71.67,0,0,1,25,29.21,69.76,69.76,0,0,1,5.77,36.58H255.64c.1-.7.22-1.7.32-2.89a56.89,56.89,0,0,0-1.28-16.69,54.35,54.35,0,0,0-8-19.25A55.34,55.34,0,0,0,229,1075.7a56.83,56.83,0,0,0-21.5-8.34,54.56,54.56,0,0,0-10.91-.64A57.76,57.76,0,0,0,144,1109.4c-.77,3-5.89,24,6.74,44.28A59.55,59.55,0,0,0,189.86,1180Z" transform="translate(-127.71 -1052.92)"/><path class="cls-1" d="M170.6,1146.18c.21-1.43.49-2.73.82-4.22.11-.51.2-.93.27-1.22L176,1128a6.54,6.54,0,0,1,1.9-2.44,6.84,6.84,0,0,1,.81-.55l.55-.27,4.07-1.9v-22.28a9.34,9.34,0,0,1,.82-3.26c.08-.19.18-.37.27-.55l-1.09-.54-7.33-2.72a2.09,2.09,0,0,1,0-1.9,1.62,1.62,0,0,1,.54-.54l.54-.27,20.65-7.34a2.18,2.18,0,0,1,1.09-.27,3.42,3.42,0,0,1,.63.1c.19.06.34.12.46.17l17.39,6.25,4.34,1.63a1.6,1.6,0,0,1,.55,1.36,1.66,1.66,0,0,1-.82,1.09,2,2,0,0,1-.81.27v2.17l.81.27.55,4.89h-5.17l.55-4.89.81-.27v-1.09l-4.35,1.63a23,23,0,0,1,.55,4.08c0,.67,0,1.3,0,1.9l.27,20.11A22.13,22.13,0,0,1,219,1125a9,9,0,0,1,2.44,2.18,7.83,7.83,0,0,1,.55.81l4.34,12.77c.08.29,1.81,7,1.09,9-.12.33-.44,1.2-1.09,1.36a4.12,4.12,0,0,1-.74,0c-.49,0-.89,0-1.16,0h-53a1.5,1.5,0,0,1-.55-.28C170.55,1150.54,170.05,1149.89,170.6,1146.18Z" transform="translate(-127.71 -1052.92)"/><path class="cls-2" d="M186.91,1106a12.5,12.5,0,0,0,0,1.63,15.91,15.91,0,0,0,1.09,4.86,16.53,16.53,0,0,0,4.07,6,16,16,0,0,0,3.53,2.45l-4.62,4.62,1.36.54.81.54a15.7,15.7,0,0,1,3.54,3.26,12.28,12.28,0,0,1,2.17,4.89c.06-.18.15-.47.27-.81a14.69,14.69,0,0,1,4.08-6.25,12.69,12.69,0,0,1,3.53-2.17l-.27-.28-4.35-4.34a7.23,7.23,0,0,0,.82-.28c1.87-.75,3.07-2.22,4.34-4.34a37.33,37.33,0,0,0,3.54-7.88,7.69,7.69,0,0,1-1.09-.27,8,8,0,0,1-3-1.91c-1.31-1.21-3-2.75-4.89-4.62a3.82,3.82,0,0,1-.27.55,5.51,5.51,0,0,1-3.26,2.17,27.86,27.86,0,0,1-8.15,1.63A31.57,31.57,0,0,1,186.91,1106Z" transform="translate(-127.71 -1052.92)"/><text class="cls-3" transform="translate(215.47 124.84)">FinStudent</text></g></svg>