<svg id="Layer_1" data-name="Layer 1" xmlns="http://www.w3.org/2000/svg" viewBox="0 0 193.57 204.35"><defs><style>.cls-1{font-size:62.21px;font-family:Helvetica;}.cls-1,.cls-2{fill:#2e3192;}.cls-2{stroke:#1a1a1a;stroke-miterlimit:10;}</style></defs><text class="cls-1" transform="translate(0 174.43)">History</text><path class="cls-2" d="M557.48,1185.7a45.64,45.64,0,0,0,3.15,5.91,38.9,38.9,0,0,0,5.51,7.09,31.73,31.73,0,0,0,10.24,7.09,31.29,31.29,0,0,0,13.78,2.36A33.94,33.94,0,0,0,621.67,1164c-4.79-15.37-18.64-21.09-20.08-21.66-.85-.33-14.21-5.34-27.57,1.18-2.58,1.26-10.35,5-14.18,13.39-.58,1.27-1.18,4-1.18,3.15s12.6,11.82,12.6,11.82l-29.48,0v-29.38L552,1153c.13-.26.26-.52.4-.78a40,40,0,0,1,4.33-6.7,48.39,48.39,0,0,1,15-10.63,45.66,45.66,0,0,1,21.67-3.55,45.09,45.09,0,0,1,24,10.24,43.93,43.93,0,0,1,9.06,10.64,42.23,42.23,0,0,1,4.33,9.84,43,43,0,0,1-3.54,32.69,44.72,44.72,0,0,1-10.64,12.6,42.3,42.3,0,0,1-60.26-5.12,44,44,0,0,1-8.66-16.54Z" transform="translate(-493.43 -1130.7)"/><polygon class="cls-2" points="88.86 23.1 95.99 23.1 95.99 41.81 113.67 53.04 110.12 58.94 88.86 46.5 88.86 23.1"/></svg>