<svg id="Layer_1" data-name="Layer 1" xmlns="http://www.w3.org/2000/svg" viewBox="0 0 224.83 206.23"><defs><style>.cls-1{font-size:62.21px;font-family:Helvetica;}.cls-1,.cls-2{fill:#2e3192;}.cls-2{stroke:#1a1a1a;stroke-miterlimit:10;}</style></defs><text class="cls-1" transform="translate(0 176.31)">Manage</text><path class="cls-2" d="M549.89,1100.82l9.35-11.5q-1.05-.73-2.16-1.44a56.32,56.32,0,0,0-17.26-7.19v-11l-14.38.21V1080a21.68,21.68,0,0,0-3.05.22c-2.2.31-12.56,2.15-17.09,11.28s-.41,19.64,5,24.45a30.26,30.26,0,0,0,5.75,3.6c3.66,2,7,3.28,13.66,5.75a99,99,0,0,1,9.35,4.32,9.37,9.37,0,0,1,3.6,2.87,6.67,6.67,0,0,1,1.43,5c-.46,2.41-2.56,3.69-3.59,4.32-2.75,1.68-5.55,1.55-7.91,1.44a23.83,23.83,0,0,1-8.63-2.16,29.49,29.49,0,0,1-7.91-5L506,1146.84q1,1.1,2.16,2.16a33.58,33.58,0,0,0,17.26,7.91V1167H540l-.14-10.07a18.16,18.16,0,0,0,5,0,21.57,21.57,0,0,0,17.26-15.1c2.8-9.76-2.32-18.92-7.91-23a30.22,30.22,0,0,0-5.75-2.88c-8.19-3.55-11.65-3-17.26-5.75-7.2-3.57-8.35-5.65-8.63-6.47-.08-.26-1.22-3.77.72-6.47a6.8,6.8,0,0,1,2.88-2.16c3.2-1.54,6.36-1.12,9.35-.72a20.21,20.21,0,0,1,5.75,1.44,35.09,35.09,0,0,1,5,2.87c.91.58,1.65,1.09,2.16,1.44Z" transform="translate(-419.67 -1069.18)"/></svg>